<?xml version="1.0" standalone="no"?><!DOCTYPE svg PUBLIC "-//W3C//DTD SVG 1.1//EN" "http://www.w3.org/Graphics/SVG/1.1/DTD/svg11.dtd"><svg class="icon" width="60px" height="60.00px" viewBox="0 0 1024 1024" version="1.1" xmlns="http://www.w3.org/2000/svg"><path fill="#ffffff" d="M968.192 62.976c-18.432-16.384-39.936-24.576-65.024-24.576-25.088 0-48.128 9.728-69.12 28.672L495.616 373.76c-32.768 29.696-48.64 67.072-48.64 112.128 0 44.544 15.872 83.456 48.128 116.224 31.744 32.768 70.144 49.152 114.688 49.152 43.008 0 81.408-15.872 115.712-48.128 47.104-43.52 129.024-176.128 246.784-398.336 15.872-31.232 24.064-57.856 24.064-79.872-0.512-25.088-9.728-45.568-28.16-61.952z m-28.16 132.608C858.112 353.28 715.776 558.08 683.008 589.312c-24.064 23.04-50.688 20.992-80.896 20.992-31.232 0-57.856-11.776-79.872-34.816-22.528-23.04-33.792-50.688-33.792-82.432 0-32.256 11.264-71.68 34.304-92.672l321.024-302.592c14.336-13.312 18.432-20.48 36.352-20.48h11.776c17.408 0 32.256 5.632 45.568 17.408 12.8 11.776 19.456 26.112 19.456 44.032 0 15.872-5.632 34.816-16.896 56.832z m-488.448 459.264c-23.552-18.944-42.496-41.984-56.32-69.12-25.6 1.024-48.128 3.072-66.56 5.632-18.432 2.56-36.864 7.168-54.784 13.312-17.92 6.144-33.28 14.848-46.592 25.088-12.8 10.24-25.088 24.064-36.864 40.448-11.264 16.384-21.504 36.352-30.208 59.392-5.12 13.312-14.848 19.456-29.184 19.456-5.12 0-13.312-3.072-24.576-9.216-10.752-6.144-21.504-12.288-31.232-19.456-9.728-7.168-20.992-14.848-32.768-23.552-11.776-8.704-19.456-13.824-21.504-15.872 0 41.472 5.12 80.384 15.36 116.736 10.24 35.84 25.6 68.096 46.08 96.768 20.48 28.672 47.104 51.2 80.896 67.584 33.792 16.384 72.192 24.576 115.712 24.576 75.776 0 137.728-23.552 184.832-71.168 47.104-47.104 70.144-108.544 68.608-183.808l-0.512-37.376c-29.696-7.168-56.832-20.48-80.384-39.424z m-18.432 238.592c-38.4 36.864-88.576 55.296-150.528 55.296-35.328 0-66.56-6.144-94.208-18.944s-49.152-30.208-65.536-52.224c-16.384-22.016-29.184-34.816-37.376-62.976-8.192-28.16-14.848-20.48-25.6-53.248 2.048 1.536 7.68 5.632 17.408 12.288 9.728 6.656 18.432 12.8 26.624 18.432s16.384 10.24 25.6 14.848c8.704 4.608 15.36 7.168 19.968 7.168 11.776 0 32.768-54.784 36.864-65.024 7.168-17.92 15.36-33.792 24.576-46.08 9.216-12.8 19.456-23.04 30.208-31.232 10.752-8.192 23.04-14.848 37.888-19.456 14.848-5.12 29.696-8.192 44.544-10.752 14.848-2.048 32.768-3.584 54.272-4.608 11.264 20.992 26.624 38.912 46.08 53.76s40.96 25.088 65.024 31.232l0.512 29.184c0.512 57.856-17.92 105.472-56.32 142.336z"  /></svg>