<?xml version="1.0" standalone="no"?><!DOCTYPE svg PUBLIC "-//W3C//DTD SVG 1.1//EN" "http://www.w3.org/Graphics/SVG/1.1/DTD/svg11.dtd"><svg class="icon" width="60px" height="60.00px" viewBox="0 0 1024 1024" version="1.1" xmlns="http://www.w3.org/2000/svg"><path fill="#ffffff" d="M224 464c-19.2 0-32-12.8-32-32v-384c0-16 12.8-32 32-32 16 0 32 12.8 32 32v384c0 16-16 32-32 32z"  /><path fill="#ffffff" d="M448 240c0 19.2-12.8 32-32 32H32c-16 0-32-12.8-32-32 0-16 12.8-32 32-32h384c16 0 32 12.8 32 32zM41.6 633.6c12.8-12.8 32-12.8 44.8 0l320 320c12.8 12.8 12.8 32 0 44.8-12.8 12.8-32 12.8-44.8 0l-320-320c-12.8-12.8-12.8-32 0-44.8z"  /><path fill="#ffffff" d="M41.6 998.4c-12.8-12.8-12.8-32 0-44.8l320-320c12.8-12.8 32-12.8 44.8 0 12.8 12.8 12.8 32 0 44.8l-320 320c-12.8 12.8-32 12.8-44.8 0zM1024 140.8c0 19.2-12.8 32-32 32H608c-16 0-32-12.8-32-32 0-16 12.8-32 32-32h384c19.2 0 32 12.8 32 32zM1024 339.2c0 19.2-12.8 32-32 32H608c-16 0-32-12.8-32-32 0-16 12.8-32 32-32h384c19.2 0 32 12.8 32 32zM1024 816c0 19.2-12.8 32-32 32H608c-16 0-32-12.8-32-32 0-16 12.8-32 32-32h384c19.2 0 32 16 32 32z"  /><path fill="#ffffff" d="M800 672m-48 0a48 48 0 1 0 96 0 48 48 0 1 0-96 0Z"  /><path fill="#ffffff" d="M800 960m-48 0a48 48 0 1 0 96 0 48 48 0 1 0-96 0Z"  /></svg>