<?xml version="1.0" standalone="no"?><!DOCTYPE svg PUBLIC "-//W3C//DTD SVG 1.1//EN" "http://www.w3.org/Graphics/SVG/1.1/DTD/svg11.dtd"><svg class="icon" width="60px" height="60.00px" viewBox="0 0 1024 1024" version="1.1" xmlns="http://www.w3.org/2000/svg"><path fill="#ffffff" d="M511.881945 1024c-107.638154 0-213.484308-86.724923-383.113846-257.536C85.996406 722.491077 59.372406 643.170462 59.077022 594.845538L59.077022 184.241231C58.998252 129.28 99.702252 75.185231 153.836406 58.486154c231.089231-75.145846 484.804923-75.303385 716.642462 0.039385 52.814769 16.384 94.385231 71.640615 94.385231 125.715692l0 410.348308c-0.236308 48.659692-26.919385 128.039385-69.454769 171.638154C725.563175 937.235692 619.697329 1024 511.881945 1024L511.881945 1024zM512.039483 43.382154c-117.484308 0-233.590154 18.392615-345.166769 54.665846-36.233846 11.204923-65.457231 49.801846-65.378462 86.153846L101.494252 594.707692c0.196923 39.660308 24.004923 108.130462 57.796923 142.907077 161.240615 162.264615 260.096 244.814769 352.590769 244.814769 92.672 0 191.566769-82.550154 352.964923-245.051077 33.614769-34.461538 57.403077-102.990769 57.619692-142.887385L922.46656 184.241231c0-35.741538-29.814154-75.224615-65.043692-86.153846C745.57056 61.774769 629.504098 43.382154 512.039483 43.382154L512.039483 43.382154zM511.881945 899.209846c-67.918769 0-181.464615-108.603077-291.938462-219.746462-16.423385-16.994462-33.319385-63.803077-33.654154-85.267692l0-399.753846c0-9.019077 5.966769-17.014154 14.690462-19.771077 202.968615-64 421.12-63.645538 621.942154-0.078769 8.782769 2.756923 14.710154 10.752 14.710154 19.771077l0 400.246154c-0.334769 21.582769-17.604923 68.312615-34.107077 85.307077C692.854252 791.256615 579.879483 899.209846 511.881945 899.209846L511.881945 899.209846zM228.70656 209.703385l0 384.196923c0.157538 12.484923 14.001231 48.659692 21.740308 56.615385 61.518769 61.932308 205.705846 207.104 261.435077 207.104 55.808 0 199.227077-144.344615 260.489846-206.001231 9.058462-9.255385 22.685538-45.764923 22.862769-57.344L795.23456 209.644308C611.800714 154.683077 413.991483 154.427077 228.70656 209.703385L228.70656 209.703385zM511.960714 886.508308c-11.716923 0-21.188923-9.314462-21.188923-20.795077L490.771791 151.630769c0-11.480615 9.472-20.795077 21.188923-20.795077s21.188923 9.294769 21.188923 20.795077l0 714.082462C533.149637 877.193846 523.677637 886.508308 511.960714 886.508308L511.960714 886.508308z" /></svg>