<?xml version="1.0" standalone="no"?><!DOCTYPE svg PUBLIC "-//W3C//DTD SVG 1.1//EN" "http://www.w3.org/Graphics/SVG/1.1/DTD/svg11.dtd"><svg class="icon" width="60px" height="60.00px" viewBox="0 0 1024 1024" version="1.1" xmlns="http://www.w3.org/2000/svg"><path fill="#ffffff" d="M626.204042 1005.065765c-11.123338 0-22.26612-1.091868-33.117258-3.244904-36.849256-7.29515-71.40733-26.869974-102.715383-58.175981-30.651091-30.651091-62.495356-45.552475-97.348142-45.552475-13.538341 0-27.621081 2.366907-41.857317 7.037277-39.186488 12.853749-65.99097 38.587853-66.243727 38.842657-5.022387 4.89959-11.733229 7.618515-18.859533 7.618515-7.373944 0-14.270005-2.904143-19.415189-8.178263-5.067412-5.188162-7.809873-12.037151-7.722892-19.287275 0.085958-7.250124 2.990101-14.028505 8.176217-19.094894 3.609201-3.527336 36.70497-34.933627 87.141686-51.479465 19.648502-6.445806 39.388079-9.714246 58.669214-9.714246 11.116175 0 22.261003 1.091868 33.124422 3.244904 36.857443 7.299243 71.417563 26.872021 102.7205 58.175981 30.650067 30.653137 62.494333 45.552475 97.350189 45.550429 13.544481-0.002047 27.625174-2.368954 41.851177-7.03523 38.07313-12.487406 64.880683-37.546128 66.004273-38.606273 5.205559-5.082762 11.969613-7.857968 19.0908-7.857968 7.373944 0 14.274098 2.90619 19.427468 8.184403 5.064342 5.187139 7.804756 12.037151 7.716752 19.285229-0.083911 7.251148-2.988054 14.030551-8.17724 19.0908-3.613294 3.530406-36.730553 34.945907-87.143733 51.482535C665.22987 1001.797325 645.490294 1005.065765 626.204042 1005.065765zM924.078243 669.420309c-14.968923 0-27.145244-12.174274-27.145244-27.137057L896.932999 433.037601c0-70.708412-57.523111-128.23357-128.22743-128.23357-70.712505 0-128.241756 57.525158-128.241756 128.23357l0 209.244628c0 14.962783-12.174274 27.137057-27.137057 27.137057-14.968923 0-27.145244-12.174274-27.145244-27.137057L586.181513 266.893606c0-14.9679 12.17632-27.145244 27.145244-27.145244 14.962783 0 27.137057 12.177344 27.137057 27.145244l0 34.455743 18.066471-13.723559c31.955806-24.27487 70.053496-37.105083 110.175285-37.105083 100.641141 0 182.516894 81.876776 182.516894 182.516894l0 209.244628C951.223486 657.245012 939.047166 669.420309 924.078243 669.420309zM123.723859 659.914818c-28.092825 0-50.947346-22.855544-50.947346-50.947346L72.776514 69.88158c0-28.092825 22.854521-50.947346 50.947346-50.947346l346.573343 0c7.532557 0 14.911618 3.115967 20.244067 8.55177 5.13802 5.237281 7.893784 12.026918 7.757684 19.11843-0.276293 14.675234-12.45159 26.613124-27.137057 26.613124L160.711262 73.217558c-18.555611 0-33.651424 15.095813-33.651424 33.651424l0 193.818287 344.103082 0c14.966876 0 27.143197 12.172227 27.143197 27.136034 0 14.968923-12.17632 27.145244-27.143197 27.145244L127.059837 354.968547 127.059837 571.98007c0 18.555611 15.095813 33.652448 33.651424 33.652448l310.451658 0c14.686491 0 26.860764 11.935843 27.137057 26.610054 0.1361 7.093559-2.619664 13.884218-7.757684 19.1215-5.332449 5.433756-12.71151 8.550747-20.244067 8.550747L123.723859 659.914818z" /></svg>