<?xml version="1.0" standalone="no"?><!DOCTYPE svg PUBLIC "-//W3C//DTD SVG 1.1//EN" "http://www.w3.org/Graphics/SVG/1.1/DTD/svg11.dtd"><svg class="icon" width="60px" height="59.94px" viewBox="0 0 1025 1024" version="1.1" xmlns="http://www.w3.org/2000/svg"><path fill="#ffffff" d="M606.393005 291.795156a655.500938 655.500938 0 0 0-87.74332-89.104656 9.414961 9.414961 0 0 0-6.200375-2.436679v-37.751363a9.380642 9.380642 0 0 0 5.857181-2.196443c38.060238-30.23541 74.782018-51.032979 109.06712-63.44517a8.90017 8.90017 0 0 0 5.948699-7.024041 93.177228 93.177228 0 0 1 90.957905-73.214764c63.170614 0 106.916436 61.557601 88.830101 120.117973a9.517919 9.517919 0 0 0 1.075342 8.110823c29.972294 45.0614 42.121369 113.643042 29.171508 201.340602a11.085173 11.085173 0 0 0 7.001162 12.149075c233.50934 92.856913 232.983108 281.831084-1.349898 374.447761a9.609438 9.609438 0 0 0-5.948699 10.295826c1.899008 11.611404 2.97435 23.211368 4.061131 34.319421a9.243364 9.243364 0 0 0 5.719904 8.099384 93.131468 93.131468 0 0 1 57.507909 85.798552c0 56.158012-49.19117 98.542497-103.66753 92.330682a11.622844 11.622844 0 0 0-9.449281 3.500581c-59.120922 60.745375-163.051569 55.071231-278.605058-36.710341a9.151846 9.151846 0 0 0-6.200376-2.162123v-37.96872a7.653231 7.653231 0 0 0 6.200376-2.150683c28.885513-23.760479 58.343015-53.446778 87.743319-89.081777a9.666637 9.666637 0 0 0-8.099383-15.661096c-28.347842 1.887568-57.199035 2.97435-85.798553 2.97435v-19.447672c34.822772 0 69.90866-1.338457 104.193762-4.575923a42.430244 42.430244 0 0 0 31.585307-18.303691 1142.665118 1142.665118 0 0 0 104.205202-180.337117 41.812494 41.812494 0 0 0 0-36.71034 1145.971222 1145.971222 0 0 0-103.942086-180.051122 43.379748 43.379748 0 0 0-31.894182-18.475288c-34.319421-3.237465-69.107874-4.861918-104.193762-4.861918v-19.161677c28.599517 0 57.49647 1.086782 85.798552 2.96291a9.586558 9.586558 0 0 0 8.168023-15.615336z m-93.943695 68.295647a144.58772 144.58772 0 0 1 0 289.129681V360.090803z m306.094915 408.721423c-0.263116-4.061131-0.537671-8.087944-0.800787-12.41219a9.151846 9.151846 0 0 0-12.149075-8.373939c-41.046027 12.42363-87.468764 22.410582-139.565645 29.148628-12.42363 1.361337-22.136026 7.298597-29.743498 17.010993-31.573867 41.846814-63.43373 77.207257-94.744481 106.10421a9.678077 9.678077 0 0 0 1.086782 15.123424c78.557154 52.623112 149.861471 61.271606 200.311019 33.472876a11.554205 11.554205 0 0 0 3.271785-17.537225c-48.047189-55.872017-12.42363-147.127357 63.43373-152.526946a9.746716 9.746716 0 0 0 8.90017-9.986951z m-41.560819-582.583609c-49.419966 34.319421-119.866297 12.42363-140.377871-45.358834a9.414961 9.414961 0 0 0-11.611404-5.92582c-26.185718 7.836268-53.767093 21.31236-82.36661 40.485477a9.414961 9.414961 0 0 0-1.086782 14.871749c31.310752 29.160068 63.170614 64.520511 95.030476 106.390204a41.560819 41.560819 0 0 0 29.457503 16.908035c51.330414 6.53213 96.906605 16.255966 137.128966 28.393601a11.439807 11.439807 0 0 0 14.871749-10.295826c3.786576-59.670033-6.474931-107.991778-27.26106-142.539995a9.552239 9.552239 0 0 0-13.727768-2.97435zM685.190395 753.425686c45.896505-7.561712 86.393422-18.303691 121.261954-31.333631a9.50648 9.50648 0 0 0 6.223255-10.513183c-6.223255-36.996336-17.296988-77.218697-33.484315-120.678523a9.563679 9.563679 0 0 0-17.548664-0.812227 1295.786934 1295.786934 0 0 1-85.855751 148.717491c-4.575923 6.749486 1.349897 15.935651 9.43784 14.585754z m148.71749-358.237555c-9.437841 41.034588-24.023595 85.569756-43.997497 133.090714a41.537939 41.537939 0 0 0 0 34.010546c20.248458 48.60774 35.108768 93.943695 44.546608 135.527393a9.632317 9.632317 0 0 0 13.498972 6.486371c171.700063-83.968183 172.226294-232.228081 2.150684-316.676736a11.508446 11.508446 0 0 0-16.198767 7.561712z m-21.598355-14.322638c-6.474931 36.458665-17.274108 76.131915-33.17544 118.790955a9.563679 9.563679 0 0 1-17.548664 0.800787 1269.029225 1269.029225 0 0 0-85.855751-148.465815 9.529359 9.529359 0 0 1 9.723835-14.597194c45.084279 7.550273 84.76897 18.086335 119.591742 30.773081a11.634284 11.634284 0 0 1 7.264278 12.698186zM512.42643 200.265261a8.3053 8.3053 0 0 0-5.93726 2.436678c-28.896952 23.760479-58.343015 53.195102-87.743319 88.818662a9.666637 9.666637 0 0 0 8.099383 15.661095c28.347842-1.899008 56.958799-2.699794 85.581196-2.699794v19.161677c-34.834212 0-69.645545 1.624453-103.66753 4.861917a42.121369 42.121369 0 0 0-31.859863 18.360891 1129.921173 1129.921173 0 0 0-104.216641 180.337116 43.745822 43.745822 0 0 0 0 36.710341 1172.706051 1172.706051 0 0 0 103.942086 180.062561 43.471266 43.471266 0 0 0 31.859862 18.303692c34.010546 2.97435 69.096434 4.575923 103.930646 4.575922v19.447672c-28.599517 0-57.199035-1.143981-85.581195-2.97435a9.609438 9.609438 0 0 0-8.053624 15.729735 654.356958 654.356958 0 0 0 87.743319 89.081777 10.021271 10.021271 0 0 0 5.93726 2.150683v38.060238a8.705693 8.705693 0 0 0-5.719904 2.162124c-175.463759 139.302529-324.215569 80.719278-329.889713-108.529449-0.263116-4.324247-2.699794-7.824828-6.749486-8.90017A92.982751 92.982751 0 0 1 106.393362 705.630172a9.426401 9.426401 0 0 0-4.312807-9.986951c-157.388864-99.331844-132.816159-256.205917 73.969792-337.725981a9.769595 9.769595 0 0 0 5.948699-10.295826C144.728155 97.959067 308.877945 3.191706 506.48917 160.306015a9.975512 9.975512 0 0 0 5.93726 2.162123v37.751363z m0 448.955223V360.090803h-2.436679a144.56484 144.56484 0 1 0 0 289.129681h2.436679z m-300.466529-25.602288c6.749486-19.710787 14.574314-40.222361 23.222808-61.01993a41.48074 41.48074 0 0 0 0-34.021986c-20.259898-48.5963-35.097328-93.943695-44.546609-135.515953a9.403521 9.403521 0 0 0-13.498972-6.48637c-147.676468 72.31102-168.725713 192.188757-63.182054 278.033068a9.426401 9.426401 0 0 0 13.224417-1.349897 92.891232 92.891232 0 0 1 73.432121-31.859863 11.680043 11.680043 0 0 0 11.336849-7.824828z m27.2153 17.502905c34.822772 17.274108 55.059791 55.08267 50.746984 93.680579a9.254804 9.254804 0 0 0 7.287157 10.295826c13.727768 3.248905 27.810171 5.93726 42.395925 8.373939a9.689516 9.689516 0 0 0 9.712396-14.871749 1271.854857 1271.854857 0 0 1-85.798552-148.488694 9.643757 9.643757 0 0 0-17.548664 1.143981c-4.575923 12.137635-8.90017 24.29815-12.675306 36.172669a11.668603 11.668603 0 0 0 5.948699 13.727769z m39.14702 129.041023a93.508982 93.508982 0 0 1-61.557601 45.084279 9.289123 9.289123 0 0 0-7.561713 10.524622c19.447672 138.501743 134.989722 182.49924 273.19403 89.642327a9.666637 9.666637 0 0 0 1.075342-15.123424c-31.310752-28.885513-63.159174-64.257396-94.744481-106.390205a43.711502 43.711502 0 0 0-29.743498-17.010993c-24.835821-2.97435-48.310305-7.024041-70.446332-11.336849a9.048887 9.048887 0 0 0-10.295826 4.575923z m204.086156-594.744124C323.177704 68.524444 194.148121 143.031906 207.372538 334.191081a9.346322 9.346322 0 0 0 12.137635 8.637054c41.046027-12.686746 87.468764-22.673697 139.85164-29.160068a43.128072 43.128072 0 0 0 29.423184-17.010993c31.585307-41.846814 63.43373-77.207257 94.744481-106.390205a9.403521 9.403521 0 0 0-1.075342-14.871749zM263.519111 500.74323a1251.343284 1251.343284 0 0 1 85.798552-148.71749c4.575923-7.035481-1.349897-16.198767-9.437841-14.871749-45.896505 7.824828-86.118867 18.303691-121.261954 31.585307a9.50648 9.50648 0 0 0-6.200375 10.524622c6.200375 36.710341 17.262669 77.195817 33.461435 120.678523a9.563679 9.563679 0 0 0 17.548664 0.812227z" /></svg>