<?xml version="1.0" standalone="no"?><!DOCTYPE svg PUBLIC "-//W3C//DTD SVG 1.1//EN" "http://www.w3.org/Graphics/SVG/1.1/DTD/svg11.dtd"><svg class="icon" width="60px" height="60.00px" viewBox="0 0 1024 1024" version="1.1" xmlns="http://www.w3.org/2000/svg"><path fill="#ffffff" d="M990.208 837.12c7.68 15.872 13.312 33.28 13.312 52.224 0 57.344-39.936 105.472-90.112 111.616h-797.696c-55.808 0-100.864-49.664-100.864-111.616 0-22.528 7.68-42.496 17.92-59.904l-0.512-1.024 294.912-504.32v-260.096h-110.592c-10.752 0-19.456-8.704-19.456-19.456s8.704-19.456 19.456-19.456H814.592c10.752 0 19.456 8.704 19.456 19.456s-8.704 19.456-19.456 19.456H691.2v260.096l130.56 222.72c7.168 2.56 12.8 9.728 12.8 17.92 0 1.024-0.512 1.536-0.512 2.56l157.184 267.776-1.024 2.048z m-337.92-499.712v-273.408h-286.208v273.408l-122.88 208.384H776.192l-123.904-208.384z m273.92 458.752L799.744 584.704H220.16l-136.192 230.912 0.512 1.024c-10.24 17.408-34.816 73.216-31.232 80.384 26.112 47.616 45.056 65.024 100.864 65.024H873.984c50.688-6.144 90.112-33.792 90.112-91.136 0-19.456-31.744-57.344-39.424-72.704l1.536-2.048z m-221.696 113.664c-50.176 0-91.136-40.96-91.136-91.136s40.96-91.136 91.136-91.136 91.136 40.96 91.136 91.136-40.96 91.136-91.136 91.136z m0-143.36c-28.672 0-52.224 23.552-52.224 52.224s23.552 52.224 52.224 52.224 52.224-23.552 52.224-52.224c-0.512-28.672-23.552-52.224-52.224-52.224z m-325.632 26.112c-50.176 0-78.336-27.648-78.336-78.336 0-50.176 27.648-78.336 78.336-78.336s78.336 27.648 78.336 78.336-28.16 78.336-78.336 78.336z m0-117.248c-28.672 0-38.912 10.24-38.912 38.912s10.24 38.912 38.912 38.912 38.912-10.24 38.912-38.912c0-28.16-10.24-38.912-38.912-38.912z"  /></svg>