<?xml version="1.0" standalone="no"?><!DOCTYPE svg PUBLIC "-//W3C//DTD SVG 1.1//EN" "http://www.w3.org/Graphics/SVG/1.1/DTD/svg11.dtd"><svg class="icon" width="60px" height="60.00px" viewBox="0 0 1024 1024" version="1.1" xmlns="http://www.w3.org/2000/svg"><path fill="#ffffff" d="M623.938442 1005.732961c-0.994654 0-2.018983-0.071631-3.12927-0.216941l-0.574075-0.074701L417.890622 1005.441319c-12.763698 0-23.146163-10.384511-23.146163-23.147186 0-12.759605 10.383488-23.141046 23.146163-23.141046l217.446427 0 0.230244-0.010233c117.335359-6.121418 209.247698-103.009072 209.247698-220.573651 0-84.138282-46.436612-159.758564-121.18913-197.351764l-7.225565-3.634784-4.281513 6.864338c-17.404392 27.906583-47.344285 44.567032-80.08599 44.567032-14.431687 0-28.297486-3.194762-41.211611-9.495258l-5.686513-2.775206-159.310356 159.318542c-13.135158 13.135158-30.629601 20.370956-49.25889 20.370956-18.630313 0-36.123732-7.234775-49.25889-20.370956L192.592366 601.340771c-13.134135-13.132088-20.367887-30.625508-20.367887-49.254797 0-18.631336 7.233752-36.123732 20.367887-49.255821L617.542778 77.873602c13.134135-13.132088 30.628578-20.364817 49.25889-20.364817 18.631336 0 36.125779 7.231705 49.25889 20.364817l134.714168 134.718261c13.135158 13.132088 20.36891 30.624485 20.36891 49.255821 0 18.631336-7.233752 36.123732-20.36891 49.255821L714.105021 447.783443l2.775206 5.684466c5.0449 10.334369 8.111748 21.432125 9.118682 32.985252l0.455371 5.238304 4.815679 2.113127c31.931247 14.009062 60.519352 33.960463 84.969207 59.296501 48.27754 50.052976 74.865081 115.921149 74.865081 185.468109 0 71.360258-27.791973 138.451282-78.256318 188.915627-5.478781 5.478781-11.361769 10.862395-17.488303 16.000416l-18.667152 15.659655 157.381423 0c12.762675 0 23.147186 10.384511 23.147186 23.149233 0 12.762675-10.384511 23.147186-23.147186 23.147186L636.384915 1005.441319l-0.192382 0.008186C631.828133 1005.63984 627.820865 1005.732961 623.938442 1005.732961zM666.802692 103.764272c-6.247284 0-12.116969 2.429329-16.527418 6.840802L225.323838 535.561625c-4.409426 4.405333-6.840802 10.275018-6.840802 16.524348s2.430352 12.120039 6.843872 16.527418l134.711098 134.717238c4.411473 4.411473 10.281157 6.839779 16.527418 6.839779 6.247284 0 12.116969-2.428306 16.527418-6.839779l158.699442-158.699442-3.087315-5.794983c-7.209192-13.537318-11.019984-28.811186-11.019984-44.169989 0-52.019771 42.324968-94.340645 94.346785-94.340645 15.357779 0 30.632671 3.808746 44.173059 11.014868l5.792936 3.083222 136.050606-136.048559c9.112542-9.111518 9.112542-23.938202 0-33.04972L683.33011 110.605074C678.918637 106.193601 673.048953 103.764272 666.802692 103.764272zM632.032794 446.611757c-26.499537 0-48.058552 21.560038-48.058552 48.060599 0 26.495444 21.559015 48.051389 48.058552 48.051389 26.496467 0 48.052412-21.555945 48.052412-48.051389C680.08623 468.171796 658.530284 446.611757 632.032794 446.611757zM316.607868 873.897354c-6.184863 0-11.998265-2.405793-16.367783-6.77531L65.37494 632.248711c-4.374634-4.371564-6.782473-10.181897-6.782473-16.361643 0-6.179746 2.407839-11.990079 6.780427-16.361643 4.372587-4.372587 10.18292-6.780427 16.363689-6.780427 6.180769 0 11.993149 2.406816 16.364713 6.77838l234.871285 234.866169c9.022491 9.022491 9.022491 23.705911-0.001023 32.733519C328.604086 871.491561 322.791707 873.897354 316.607868 873.897354zM888.178615 145.988955c-6.176676 0-11.990079-2.408863-16.368806-6.783497l-84.008322-84.009346c-4.371564-4.370541-6.77838-10.181897-6.77838-16.364713s2.406816-11.995195 6.77838-16.365736c4.372587-4.374634 10.184967-6.782473 16.365736-6.782473s11.993149 2.407839 16.364713 6.780427l84.013439 84.013439c4.374634 4.372587 6.783497 10.183943 6.783497 16.365736s-2.408863 11.994172-6.78145 16.364713C900.171764 143.581116 894.360408 145.988955 888.178615 145.988955z" /></svg>