<?xml version="1.0" standalone="no"?><!DOCTYPE svg PUBLIC "-//W3C//DTD SVG 1.1//EN" "http://www.w3.org/Graphics/SVG/1.1/DTD/svg11.dtd"><svg class="icon" width="60px" height="60.00px" viewBox="0 0 1024 1024" version="1.1" xmlns="http://www.w3.org/2000/svg"><path fill="#ffffff" d="M918.592 819.456c-13.312 0-26.432-0.064-38.848-0.192a31.68 31.68 0 0 1-32.192-32.32 3602.56 3602.56 0 0 1 0-83.2l-0.064-1.664-1.152 0.064a47.488 47.488 0 0 1-5.504 0.256l-3.456-0.064v42.944c-0.128 21.312-13.824 35.136-35.008 35.2l-36.864 0.064-38.848-0.064c-21.568-0.064-35.072-13.376-35.2-34.816a5519.296 5519.296 0 0 1-0.064-56.32v-25.664h-10.048v79.68c0 23.936-13.184 37.12-37.12 37.12H571.392c-22.464 0-36.032-13.376-36.16-35.776-0.128-18.432-0.064-37.184-0.064-55.296v-25.664h-10.048V783.04c0 19.392-9.472 32-26.56 35.584-3.264 0.704-6.528 0.704-9.472 0.704l-42.752 0.064h-30.72c-23.232 0-36.544-13.312-36.608-36.416v-80.32h-9.984v54.784l-8.384-6.4-2.048-1.472c-1.216-0.896-2.304-1.664-3.328-2.688-22.784-22.72-50.816-36.096-85.696-40.896a385.152 385.152 0 0 0-52.288-3.712c-19.712 0-39.296 1.664-58.24 4.928-30.72 5.312-55.552 17.536-76.032 37.504a59.968 59.968 0 0 1-5.504 4.608l-2.304 1.792-8.512 6.912V245.632l0.128-0.576a15.68 15.68 0 0 0 0.512-1.856c0.256-1.088 0.576-2.176 0.704-3.136 4.416-31.68 19.712-55.616 45.632-71.104 15.616-9.28 34.112-15.488 56.384-18.816 6.336-0.96 12.8-1.728 19.072-2.496l8.576-1.088h39.744l7.104 1.216c4.864 0.768 9.856 1.536 14.656 2.176 10.816 1.6 22.016 3.2 32.768 6.208 49.92 14.144 75.776 47.808 76.8 100.16 0.32 14.656 0.256 29.568 0.192 43.968l-0.064 19.904v1.728h10.048v-25.536-54.72c0.064-22.912 12.992-36.16 35.52-36.416a3763.968 3763.968 0 0 1 75.264 0c22.272 0.128 35.2 13.248 35.392 35.776l0.064 25.792v16h9.856v-1.984-23.808c0-17.92-0.064-36.48 0.064-54.72 0.128-22.976 13.376-36.16 36.352-36.224h72.832c23.488 0 36.928 13.44 36.928 36.736v80h10.048v-1.792-23.872c0-18.112-0.064-36.8 0.064-55.232 0.128-22.4 13.568-35.776 36.032-35.776h72.896c23.936 0 37.12 13.184 37.12 37.12V321.792h10.112v-20.288l0.064-58.944v-0.384c0-3.776 0-7.68 0.896-11.584 3.776-16.32 16.256-25.344 35.2-25.472l32.512-0.064 40.96 0.128a51.2 51.2 0 0 1 13.12 1.728c11.392 3.136 18.944 11.392 23.104 25.344l0.192 0.704v559.488l-0.384 0.96-0.512 1.216a22.4 22.4 0 0 0-0.832 1.984 32 32 0 0 1-30.464 22.656l-42.752 0.192z m-42.368-145.728V783.488c0 6.656 1.536 7.04 6.016 7.04l37.76 0.064 38.464-0.064c4.736 0 5.632-0.896 5.952-5.824l0.064-4.288V390.208 242.816c0-5.504-0.704-7.04-1.152-7.424-0.384-0.384-1.92-1.088-7.296-1.088h-71.68c-5.12 0-6.528 0.704-6.976 1.088-0.448 0.448-1.152 1.92-1.152 7.168v108.416h-67.968v-48.704-99.648c0-6.912-0.448-7.296-7.296-7.36l-36.864-0.064-36.48 0.064c-6.848 0-7.36 0.512-7.36 7.296V311.872H652.16v-39.424-70.144c0-6.528-0.448-7.04-6.976-7.04-12.352-0.128-24.832-0.128-37.12-0.128l-36.864 0.064c-6.528 0-6.976 0.512-6.976 7.04v109.44H496v-28.8-40.448c0-5.376-0.64-6.848-1.024-7.232-0.384-0.32-1.792-0.96-6.912-0.96h-71.68c-5.376 0-6.784 0.64-7.232 1.024-0.384 0.384-1.024 1.792-1.088 6.976v108.608H340.032v-11.84-25.6c0-18.816 0.064-38.272-0.128-57.408-0.256-35.2-16.576-58.112-49.728-70.144-18.112-6.528-38.08-9.664-64.832-10.048l-8.576-0.128c-20.992 0-48.448 1.28-74.496 11.456-24.896 9.792-39.296 25.92-44.032 49.408a125.632 125.632 0 0 0-2.368 24.96c-0.128 129.28-0.128 260.736-0.128 387.84v49.728c40.64-22.336 84.48-25.472 122.368-25.472 37.696 0 81.28 3.136 121.984 25.472v-25.088h67.904V782.976c0 7.168 0.512 7.68 7.616 7.68h72.768c4.608 0 5.952-0.704 6.336-1.152 0.448-0.448 1.152-1.856 1.152-6.592V634.944h68.16v108.608c0 4.992 0.64 6.336 1.024 6.72 0.384 0.384 1.792 1.024 6.848 1.088h71.68c5.44 0 6.912-0.64 7.296-1.024 0.384-0.384 1.024-1.92 1.088-7.488V634.816h68.096V743.296c0 5.12 0.704 6.592 1.088 6.976 0.384 0.384 1.728 1.088 6.592 1.088l36.288 0.064 36.544-0.064c4.672 0 6.016-0.64 6.4-1.024 0.384-0.384 1.088-1.792 1.088-6.656v-40.704-29.248h68.16zM197.888 936.64l-0.448-0.064-2.368-0.448c-1.536-0.256-3.008-0.576-4.352-0.64a204.032 204.032 0 0 1-54.08-10.624c-36.544-12.992-59.072-37.184-66.816-71.872-0.768-3.456-1.408-6.976-2.048-10.368l-0.896-4.672-0.128-0.512v-26.048l0.128-0.512 0.832-4.544c0.64-3.264 1.216-6.656 1.984-9.984 7.808-35.456 30.656-59.84 67.776-72.576 22.72-7.808 47.488-11.392 77.888-11.392 6.336 0 12.928 0.128 20.096 0.448 23.296 1.024 42.176 4.096 59.52 9.792 24.768 8.064 43.584 20.928 55.936 38.272 12.352 17.344 18.432 39.296 17.984 65.344-0.576 35.264-12.224 61.504-35.648 80.256-13.952 11.2-30.72 18.88-49.792 22.912-9.152 1.92-18.496 3.136-27.584 4.352-4.16 0.576-8.384 1.088-12.544 1.728l-3.456 0.64-1.792 0.384-0.512 0.064h-39.68v0.064z m21.696-195.136l-12.8 0.192c-26.112 0.64-46.592 4.224-64.512 11.264-23.488 9.216-37.696 24.128-43.328 45.696-4.032 15.36-4.352 31.424-0.896 47.808 5.248 25.152 21.504 41.984 49.6 51.584 23.424 7.936 47.552 9.28 70.08 9.536 22.592-0.256 46.72-1.536 70.144-9.472 26.24-8.832 42.112-24 48.512-46.272 4.096-14.336 4.8-29.824 1.984-46.144-4.672-27.136-21.312-45.12-50.752-54.912-19.2-6.4-40.192-9.28-68.032-9.28zM496.384 624V322.432h67.392V624H496.384z m38.272-28.992V351.744h-9.024v243.264h9.024zM652.544 624.128V322.624h67.328v301.504h-67.328z m38.336-29.12V351.68h-9.344v243.328h9.344zM340.288 662.976V361.664h67.264v301.312H340.288z m28.736-28.608c1.664 0.128 3.456 0.128 5.696 0.128h3.776v-243.84h-9.6v241.408l-0.128 1.728v0.256l0.256 0.32zM808.704 663.04V361.664h67.136v301.376h-67.136z m38.208-28.928V390.528h-9.344v243.52l9.344 0.064z" /></svg>