<?xml version="1.0" standalone="no"?><!DOCTYPE svg PUBLIC "-//W3C//DTD SVG 1.1//EN" "http://www.w3.org/Graphics/SVG/1.1/DTD/svg11.dtd"><svg class="icon" width="60px" height="60.00px" viewBox="0 0 1024 1024" version="1.1" xmlns="http://www.w3.org/2000/svg"><path fill="#ffffff" d="M256.664 1002.884c-12.597 0-22.845-10.246-22.845-22.84 0-12.597 10.248-22.845 22.845-22.845h178.795v-97.803l-8.145-0.565c-46.275-3.214-91.572-13.695-134.633-31.151-54.622-22.155-103.615-54.685-145.618-96.69-8.903-8.907-8.904-23.397 0-32.302l63.18-63.181-5.1-6.137c-49.396-59.44-75.504-131.926-75.504-209.619 0-87.79 34.186-170.325 96.262-232.401 62.079-62.077 144.615-96.264 232.402-96.264 87.783 0 170.318 34.187 232.401 96.265 62.073 62.072 96.258 144.606 96.258 232.4 0 87.795-34.185 170.33-96.258 232.403-62.082 62.076-144.617 96.262-232.401 96.262-77.692 0-150.178-26.108-209.62-75.503l-6.137-5.101-46.646 46.647 7.222 6.146c70.945 60.371 161.57 93.617 255.181 93.617 105.363 0 204.425-41.03 278.936-115.533 153.804-153.806 153.804-404.067 0-557.872-4.317-4.315-6.695-10.05-6.695-16.15 0-6.1 2.378-11.836 6.695-16.154L817.94 27.81c4.315-4.317 10.05-6.693 16.149-6.693 6.102 0 11.837 2.377 16.155 6.693 8.904 8.905 8.902 23.398-0.001 32.307l-64.908 64.906 5.363 6.16c31.875 36.605 57.286 77.972 75.526 122.95 21.389 52.735 32.233 108.457 32.233 165.619 0 57.148-10.846 112.87-32.233 165.622-22.155 54.622-54.687 103.616-96.689 145.618-42.002 42.004-90.995 74.534-145.618 96.689-43.058 17.455-88.354 27.937-134.63 31.151l-8.146 0.565V957.2h178.794c12.596 0 22.846 10.249 22.846 22.846 0 12.593-10.25 22.84-22.846 22.84H256.664z m201.639-866.109c-156.037 0-282.982 126.942-282.982 282.976 0 156.038 126.945 282.983 282.982 282.983 156.034 0 282.976-126.945 282.976-282.983 0-156.033-126.942-282.976-282.976-282.976z m-136.48 189.557l-6.594-63.015 63.145 5.261 79.56-25.324-23.632 80.077 6.594 63.017-63.145-5.26-79.557 25.322 23.629-80.078z"  /></svg>